<svg width="1440" height="810" viewBox="0 0 1440 810" fill="none" xmlns="http://www.w3.org/2000/svg">
<path d="M49 762.313C33.8561 763.567 15 779.09 15 779.09H-31L-21 -88H1470V790.569C1470 790.569 1446.82 711.375 1403 711.1C1358.95 710.823 1378.85 794.239 1335 790.569C1300.61 787.69 1309.28 736.942 1275 733.175C1249.6 730.383 1238.19 746.96 1214 754.366C1188.2 762.267 1171.04 760.591 1147 772.026C1123.8 783.061 1121.35 809.716 1095 809.994C1075.79 810.197 1070.2 791.007 1051 790.569C1030.74 790.106 1024.26 810.389 1004 809.994C973.344 809.396 974.816 773.706 947 762.313C899.404 742.819 863.737 793.838 814 779.09C781.12 769.34 776.405 737.05 742 733.175C714.276 730.052 700.905 751.34 673 749.951C644.327 748.524 633.646 723.421 605 725.228C592.051 726.045 585.939 732.248 573 733.175C554.755 734.482 545.287 724.517 527 725.228C480.936 727.018 480.669 796.176 435 790.569C408.179 787.276 403.808 760.39 377 757.015C336.551 751.924 328.737 802.803 288 805.579C226.579 809.766 226.08 705.257 166 717.281C127.204 725.045 131.684 781.529 92 779.09C73.6855 777.964 67.2786 760.799 49 762.313Z" fill="#181A19"/>
</svg>
